<svg xmlns="http://www.w3.org/2000/svg" width="129.339" height="90.819" viewBox="0 0 129.339 90.819">
  <g id="Group_1" data-name="Group 1" transform="translate(-351 -369)">
    <path id="Path_1" data-name="Path 1" d="M461.42,369H357.048A6.049,6.049,0,0,0,351,375.048v77.809a6.049,6.049,0,0,0,6.048,6.048H461.42a6.049,6.049,0,0,0,6.048-6.048V375.048A6.049,6.049,0,0,0,461.42,369Zm-42.31,6.341a2.256,2.256,0,0,1,2.254-2.254h5.708a2.256,2.256,0,0,1,2.254,2.254v5.708a2.256,2.256,0,0,1-2.254,2.254h-5.708a2.256,2.256,0,0,1-2.254-2.254Zm-14.984,0a2.256,2.256,0,0,1,2.254-2.254h5.708a2.256,2.256,0,0,1,2.254,2.254v5.708a2.256,2.256,0,0,1-2.254,2.254H406.38a2.256,2.256,0,0,1-2.254-2.254Zm-14.984,0a2.256,2.256,0,0,1,2.254-2.254H397.1a2.256,2.256,0,0,1,2.254,2.254v5.708A2.256,2.256,0,0,1,397.1,383.3H391.4a2.256,2.256,0,0,1-2.254-2.254ZM369.39,452.564a2.256,2.256,0,0,1-2.254,2.254h-5.708a2.256,2.256,0,0,1-2.254-2.254v-5.708a2.256,2.256,0,0,1,2.254-2.254h5.708a2.256,2.256,0,0,1,2.254,2.254Zm0-71.516a2.256,2.256,0,0,1-2.254,2.254h-5.708a2.256,2.256,0,0,1-2.254-2.254v-5.708a2.256,2.256,0,0,1,2.254-2.254h5.708a2.256,2.256,0,0,1,2.254,2.254Zm14.984,71.516a2.256,2.256,0,0,1-2.254,2.254h-5.708a2.256,2.256,0,0,1-2.254-2.254v-5.708a2.256,2.256,0,0,1,2.254-2.254h5.708a2.256,2.256,0,0,1,2.254,2.254Zm0-71.516a2.256,2.256,0,0,1-2.254,2.254h-5.708a2.256,2.256,0,0,1-2.254-2.254v-5.708a2.256,2.256,0,0,1,2.254-2.254h5.708a2.256,2.256,0,0,1,2.254,2.254Zm14.984,71.516a2.256,2.256,0,0,1-2.254,2.254H391.4a2.256,2.256,0,0,1-2.254-2.254v-5.708A2.256,2.256,0,0,1,391.4,444.6H397.1a2.256,2.256,0,0,1,2.254,2.254Zm14.984,0a2.256,2.256,0,0,1-2.254,2.254H406.38a2.256,2.256,0,0,1-2.254-2.254v-5.708a2.256,2.256,0,0,1,2.254-2.254h5.708a2.256,2.256,0,0,1,2.254,2.254Zm14.984,0a2.256,2.256,0,0,1-2.254,2.254h-5.708a2.256,2.256,0,0,1-2.254-2.254v-5.708a2.256,2.256,0,0,1,2.254-2.254h5.708a2.256,2.256,0,0,1,2.254,2.254Zm14.984,0a2.256,2.256,0,0,1-2.254,2.254h-5.708a2.256,2.256,0,0,1-2.254-2.254v-5.708a2.256,2.256,0,0,1,2.254-2.254h5.708a2.256,2.256,0,0,1,2.254,2.254Zm0-71.516a2.256,2.256,0,0,1-2.254,2.254h-5.708a2.256,2.256,0,0,1-2.254-2.254v-5.708a2.256,2.256,0,0,1,2.254-2.254h5.708a2.256,2.256,0,0,1,2.254,2.254ZM459.3,452.564a2.256,2.256,0,0,1-2.254,2.254h-5.708a2.256,2.256,0,0,1-2.254-2.254v-5.708a2.256,2.256,0,0,1,2.254-2.254h5.708a2.256,2.256,0,0,1,2.254,2.254Zm0-71.516a2.256,2.256,0,0,1-2.254,2.254h-5.708a2.256,2.256,0,0,1-2.254-2.254v-5.708a2.256,2.256,0,0,1,2.254-2.254h5.708a2.256,2.256,0,0,1,2.254,2.254Z" fill="#d22215"/>
    <path id="Path_2" data-name="Path 2" d="M583.127,504.9l-22.649-13.076a4.112,4.112,0,0,0-6.168,3.561v26.153a4.112,4.112,0,0,0,6.168,3.561l22.649-13.076A4.112,4.112,0,0,0,583.127,504.9Z" transform="translate(-157.152 -94.507)" fill="#f9f9f9"/>
    <line id="Line_1" data-name="Line 1" x2="30.65" transform="translate(444.69 454.819)" fill="none" stroke="#f4f7f8" stroke-linecap="round" stroke-miterlimit="10" stroke-width="10"/>
    <path id="Path_3" data-name="Path 3" d="M765.571,512.342l-16.809-20.312s-2.557-2.415.216-2.415h9.472V460.049s-.376-1.441,1.793-1.441h13.333c1.563,0,1.528,1.213,1.528,1.213v29.186h8.743c3.365,0,.831,2.528.831,2.528s-14.3,18.985-16.3,20.977A1.865,1.865,0,0,1,765.571,512.342Z" transform="translate(-306.625 -69.264)" fill="#f4f7f8"/>
  </g>
</svg>
